<?xml version="1.0" encoding="utf-8"?>
<!-- Generator: Adobe Illustrator 17.0.0, SVG Export Plug-In . SVG Version: 6.00 Build 0)  -->
<!DOCTYPE svg PUBLIC "-//W3C//DTD SVG 1.1//EN" "http://www.w3.org/Graphics/SVG/1.1/DTD/svg11.dtd">
<svg version="1.1" xmlns="http://www.w3.org/2000/svg" x="0px" y="0px"
     width="42px" height="42px" viewBox="0 0 42 42" enable-background="new 0 0 42 42">
    <g>
        <polygon fill="#C9E8FB" points="26.044,16.848 32.575,16.848 32.575,10.309 10.276,10.309 10.276,16.848 17.032,16.848
		17.032,16.839 17.832,16.839 17.832,16.848 25.244,16.848 25.244,16.839 26.044,16.839 	"/>
        <path fill="#0E3A5A" d="M31.373,25.059h-5.328v-7.411h6.531v6.208l1.7-1.7V8.61h-25.7v25.699h13.547l1.699-1.699h-5.99v-6.75h7.412
		v5.328l0.8-0.8V25.86h4.528L31.373,25.059z M17.032,32.61h-6.757v-6.75h6.757V32.61z M17.032,25.059h-6.757v-7.411h6.757V25.059z
		 M25.244,25.059h-7.412v-7.411h7.412V25.059z M25.244,16.839v0.009h-7.412v-0.009h-0.8v0.009h-6.757v-6.538h22.3v6.538h-6.531
		v-0.009H25.244z"/>
    </g>
</svg>
